<svg width="188" height="53" viewBox="0 0 188 53" fill="none" xmlns="http://www.w3.org/2000/svg">
<path d="M59.0964 18.1598C59.0964 14.6796 62.0432 13.3187 66.9749 13.3187H68.3911V12.9795C68.3911 11.5653 68.0514 10.6314 66.4367 10.6314C65.0473 10.6314 64.5396 11.4509 64.4251 12.3848H59.6652C59.8904 8.81693 62.696 7.06348 66.7497 7.06348C70.8035 7.06348 73.4373 8.73307 73.4373 12.6669V22.2613H68.5056V20.5346C67.7956 21.6095 66.494 22.6006 64.1121 22.6006C61.4478 22.6006 59.0964 21.2969 59.0964 18.156V18.1598ZM68.3911 17.0848V16.1776H67.0589C65.0168 16.1776 64.1121 16.574 64.1121 17.79C64.1121 18.6401 64.6809 19.1775 65.868 19.1775C67.3147 19.1775 68.3911 18.358 68.3911 17.081V17.0848Z" fill="#222233"/>
<path d="M76.3269 7.45991H81.3998V9.72415C82.1938 8.30995 83.7512 7.06348 86.0491 7.06348C88.0034 7.06348 89.3661 7.91352 90.0723 9.52593C91.3472 7.79916 93.1069 7.06348 94.9773 7.06348C97.7828 7.06348 99.825 8.8741 99.825 12.583V22.2613H94.7521V13.4293C94.7521 11.9274 94.0154 11.1917 92.855 11.1917C91.4961 11.1917 90.5876 12.0684 90.5876 13.6809V22.2575H85.5719V13.4255C85.5719 11.9236 84.8352 11.1879 83.6748 11.1879C82.3159 11.1879 81.4075 12.0646 81.4075 13.677V22.2537H76.3345V7.45228L76.3269 7.45991Z" fill="#222233"/>
<path d="M101.921 15.0456V14.8207C101.921 10.0673 105.463 7.06738 109.94 7.06738C113.994 7.06738 117.479 9.3888 117.479 14.7101V16.0405H107.051C107.192 17.9921 108.326 19.1243 110.139 19.1243C111.811 19.1243 112.521 18.3581 112.719 17.3708H117.479C117.025 20.71 114.444 22.6083 109.967 22.6083C105.49 22.6083 101.917 19.8905 101.917 15.0494L101.921 15.0456ZM112.547 13.1778C112.463 11.3938 111.585 10.4028 109.94 10.4028C108.41 10.4028 107.36 11.3938 107.104 13.1778H112.547Z" fill="#222233"/>
<path d="M119.662 7.45966H124.735V10.4024C125.67 8.19535 127.228 7.23095 129.526 7.26144V11.9881C126.438 11.9043 124.735 12.8649 124.735 15.2435V22.2611H119.662V7.45966Z" fill="#222233"/>
<path d="M131.682 3.4421C131.682 1.94023 132.873 0.808105 134.461 0.808105C136.049 0.808105 137.267 1.94023 137.267 3.4421C137.267 4.94396 136.049 6.04559 134.461 6.04559C132.873 6.04559 131.682 4.94015 131.682 3.4421ZM131.938 7.45979H137.011V22.2612C134.209 22.2612 131.938 19.9932 131.938 17.1953V7.45979Z" fill="#222233"/>
<path d="M139.363 15.0456V14.8207C139.363 9.89578 142.905 7.06738 147.272 7.06738C150.898 7.06738 154.245 8.65311 154.528 13.1511H149.768C149.543 11.7636 148.859 11.0012 147.386 11.0012C145.6 11.0012 144.55 12.2744 144.55 14.7673V14.9922C144.55 17.569 145.542 18.8994 147.47 18.8994C148.886 18.8994 149.879 18.0493 150.05 16.4369H154.612C154.471 20.1725 151.948 22.6083 147.157 22.6083C142.737 22.6083 139.363 20.0315 139.363 15.0494V15.0456Z" fill="#222233"/>
<path d="M155.971 18.1598C155.971 14.6796 158.918 13.3187 163.849 13.3187H165.265V12.9795C165.265 11.5653 164.926 10.6314 163.311 10.6314C161.922 10.6314 161.41 11.4509 161.299 12.3848H156.539C156.765 8.81693 159.574 7.06348 163.624 7.06348C167.674 7.06348 170.312 8.73307 170.312 12.6669V22.2613H165.38V20.5346C164.67 21.6095 163.368 22.6006 160.986 22.6006C158.322 22.6006 155.971 21.2969 155.971 18.156V18.1598ZM165.265 17.0848V16.1776H163.933C161.891 16.1776 160.986 16.574 160.986 17.79C160.986 18.6401 161.555 19.1775 162.742 19.1775C164.189 19.1775 165.265 18.358 165.265 17.081V17.0848Z" fill="#222233"/>
<path d="M173.205 7.45991H178.278V9.8385C179.072 8.30995 180.686 7.06348 183.152 7.06348C186.015 7.06348 188 8.84742 188 12.6402V22.2651H182.927V13.6618C182.927 11.9922 182.274 11.1727 180.801 11.1727C179.327 11.1727 178.278 12.0799 178.278 13.9744V22.269H173.205V7.46753V7.45991Z" fill="#222233"/>
<path d="M59.1538 38.9V38.6751C59.1538 33.7502 62.6961 30.918 67.0628 30.918C70.6891 30.918 74.0367 32.5037 74.3192 37.0017H69.5592C69.334 35.6142 68.6508 34.8518 67.1774 34.8518C65.391 34.8518 64.3413 36.125 64.3413 38.6179V38.8428C64.3413 41.4196 65.3337 42.75 67.2613 42.75C68.6775 42.75 69.6699 41.8999 69.8417 40.2875H74.4031C74.2619 44.0231 71.7388 46.4589 66.9483 46.4589C62.5281 46.4589 59.1538 43.8821 59.1538 38.9038V38.9Z" fill="#222233"/>
<path d="M76.468 24.8037H81.541V33.693C82.3349 32.1644 83.9495 30.9179 86.4154 30.9179C89.2782 30.9179 91.2631 32.7019 91.2631 36.4947V46.1196H86.1902V37.5162C86.1902 35.8466 85.5375 35.0271 84.0641 35.0271C82.5907 35.0271 81.541 35.9343 81.541 37.8288V46.1234H76.468V24.8113V24.8037Z" fill="#222233"/>
<path d="M94.042 27.2966C94.042 25.7947 95.2329 24.6626 96.8208 24.6626C98.4088 24.6626 99.6264 25.7947 99.6264 27.2966C99.6264 28.7985 98.4088 29.9001 96.8208 29.9001C95.2329 29.9001 94.042 28.7946 94.042 27.2966ZM94.2977 31.3143H99.3707V46.1157C96.5689 46.1157 94.2977 43.8476 94.2977 41.0497V31.3143Z" fill="#222233"/>
<path d="M102.516 31.3144H107.589V33.5215C108.44 32.1073 109.971 30.918 112.207 30.918C115.666 30.918 118.471 33.5215 118.471 38.5874V38.8123C118.471 43.9088 115.666 46.4551 112.181 46.4551C109.94 46.4551 108.326 45.4068 107.589 43.9354V51.0674H102.516V31.3106V31.3144ZM113.314 38.8161V38.5912C113.314 35.9877 112.181 34.7413 110.394 34.7413C108.608 34.7413 107.448 36.0716 107.448 38.5607V38.7856C107.448 41.3053 108.555 42.5784 110.394 42.5784C112.234 42.5784 113.314 41.2481 113.314 38.8123V38.8161Z" fill="#222233"/>
<path d="M26.185 18.2441L18.2766 26.1416L26.185 34.0391L34.0933 26.1416L26.185 18.2441Z" fill="#222233"/>
<path d="M40.0032 4.31883L36.6556 0.975833L31.9072 5.71778L26.1815 0L20.4559 5.71778L15.7074 0.975833L12.3598 4.31883L17.1083 9.06077L14.7646 11.4012L10.0161 6.6593L6.66848 10.0023L11.417 14.7442L9.07325 17.0847L4.32478 12.3428L0.977177 15.6858L5.72565 20.4277L0 26.1455L5.72565 31.8633L0.977177 36.6052L4.32478 39.9482L9.07325 35.2063L11.417 37.5467L6.66848 42.2887L10.0161 45.6317L14.7646 40.8897L17.1083 43.2302L12.3598 47.9722L15.7074 51.3151L20.4559 46.5732L26.1815 52.291L31.9072 46.5732L36.6556 51.3151L40.0032 47.9722L35.2548 43.2302L37.5985 40.8897L42.3469 45.6317L45.6945 42.2887L40.9461 37.5467L43.2898 35.2063L48.0382 39.9482L51.3858 36.6052L46.6374 31.8633L52.363 26.1455L46.6374 20.4277L51.3858 15.6858L48.0382 12.3428L43.2898 17.0847L40.9461 14.7442L45.6945 10.0023L42.3469 6.6593L37.5985 11.4012L35.2548 9.06077L40.0032 4.31883ZM39.3391 24.5064L37.7053 26.1379L39.3391 27.7693L27.819 39.2735L26.1853 37.642L24.5516 39.2735L13.0316 27.7693L14.6653 26.1379L13.0316 24.5064L24.5516 13.0022L26.1853 14.6337L27.819 13.0022L39.3391 24.5064Z" fill="#0068FF"/>
</svg>
